<svg width="9" height="14" viewBox="0 0 9 14" fill="none" xmlns="http://www.w3.org/2000/svg">
<path fill-rule="evenodd" clip-rule="evenodd" d="M8.2913 6.34867C8.43136 6.38415 8.54154 6.49246 8.58075 6.63438C8.61997 6.77631 8.58075 6.92943 8.47991 7.03401L2.28944 13.4467C2.21101 13.5251 2.11017 13.5662 2.00746 13.5662C1.93277 13.5662 1.85807 13.5438 1.79084 13.499C1.63211 13.3944 1.56862 13.189 1.63772 13.0079L3.4379 8.30758L0.696542 7.62971C0.558353 7.5961 0.448176 7.48779 0.408961 7.34773C0.369745 7.20768 0.405226 7.05455 0.504199 6.94998L6.44817 0.569033C6.58075 0.42711 6.7899 0.402833 6.9505 0.509276C7.1111 0.615718 7.17459 0.824868 7.10363 1.00601L5.29037 5.60917L8.2913 6.34867ZM4.34546 8.16939L3.08309 11.4654L7.41922 6.97238L4.65545 6.29078C4.54341 6.26277 4.44817 6.1862 4.39588 6.07976C4.3436 5.97519 4.33799 5.85007 4.38094 5.73989L5.59103 2.66987L1.55742 7.0004L4.06909 7.62224C4.18113 7.65026 4.27637 7.72682 4.32866 7.83139C4.38094 7.93597 4.38655 8.05922 4.34546 8.16939Z" fill="white"/>
</svg>
