<svg width="55" height="55" viewBox="0 0 55 55" fill="none" xmlns="http://www.w3.org/2000/svg">
                    <path d="M42.0747 46C38.5893 46 36.2593 44.4059 35.5143 41.5108H22.7074C21.9624 44.4045 19.6324 46 16.1456 46C12.6588 46 10.3274 44.4045 9.58105 41.5081H9.19272C7.9811 41.4777 6.83019 40.9814 5.98824 40.1261C5.11539 39.3006 4.60841 38.1714 4.57673 36.9824V34.0252H1.56505C1.14998 34.0252 0.751899 33.8635 0.458394 33.5755C0.164889 33.2876 0 32.8971 0 32.4899C0 32.0827 0.164889 31.6921 0.458394 31.4042C0.751899 31.1163 1.14998 30.9545 1.56505 30.9545H4.57673V26.5423H1.56505C1.14998 26.5423 0.751899 26.3806 0.458394 26.0926C0.164889 25.8047 0 25.4142 0 25.007C0 24.5998 0.164889 24.2093 0.458394 23.9213C0.751899 23.6334 1.14998 23.4716 1.56505 23.4716H4.57673V19.0513H1.56505C1.14998 19.0513 0.751899 18.8896 0.458394 18.6016C0.164889 18.3137 0 17.9232 0 17.516C0 17.1088 0.164889 16.7183 0.458394 16.4303C0.751899 16.1424 1.14998 15.9806 1.56505 15.9806H4.57673V14.5284C4.60841 13.3394 5.11539 12.2102 5.98824 11.3847C6.82974 10.5284 7.9807 10.0311 9.19272 10H39.7034C40.5413 10.0122 41.3655 10.2106 42.1139 10.5803C42.8624 10.95 43.5157 11.4814 44.0247 12.1345C45.2268 13.7732 52.2334 22.9015 53.1492 24.0701C54.1714 25.1569 54.819 26.5319 55 28V36.9797C54.9461 38.164 54.4423 39.2855 53.5878 40.1236C52.7332 40.9617 51.5898 41.4556 50.3826 41.5081H48.6365C47.8915 44.4045 45.5601 46 42.0747 46ZM42.0747 35.6828C39.4872 35.6828 38.3841 36.7636 38.3841 39.3061C38.3841 41.8485 39.4858 42.9293 42.0747 42.9293C44.6636 42.9293 45.7653 41.8485 45.7653 39.3061C45.7653 36.7636 44.6622 35.6828 42.0747 35.6828ZM16.1415 35.6828C13.5539 35.6828 12.4509 36.7636 12.4509 39.3061C12.4509 41.8485 13.5526 42.9293 16.1415 42.9293C18.7304 42.9293 19.8334 41.8485 19.8334 39.3061C19.8334 36.7636 18.7276 35.6828 16.1415 35.6828Z" fill="#0B2739"/>
                </svg>