<svg width="55" height="55" viewBox="0 0 55 55" fill="none" xmlns="http://www.w3.org/2000/svg">
                    <path d="M27.4986 55C25.4971 55 24.3859 52.9776 23.3119 51.0214C22.9177 50.1848 22.4064 49.4086 21.7935 48.716C20.8844 49.012 20.0239 49.4405 19.2398 49.9874C18.0359 50.8937 16.6186 51.4743 15.1249 51.673C14.6411 51.6788 14.1646 51.5553 13.7445 51.3155C12.0411 50.3298 12.088 48.0465 12.1363 45.8391C12.2143 44.9003 12.1571 43.9551 11.9665 43.0326C11.3898 42.86 10.7858 42.7968 10.1859 42.8462C9.8518 42.8462 9.49566 42.8531 9.16299 42.8614C8.83031 42.8697 8.42586 42.8779 8.06558 42.8779H8.05592C6.85636 42.8779 4.62152 42.8779 3.68286 41.2545C2.70831 39.5717 3.8775 37.6362 5.00665 35.7643L5.01907 35.745C5.5613 34.9649 5.9842 34.1083 6.27384 33.2035C5.58218 32.5971 4.80959 32.0897 3.97827 31.696C2.02364 30.6137 0 29.501 0 27.5007C0 25.5004 2.02364 24.3877 3.98103 23.3109C4.81654 22.9163 5.59177 22.405 6.28351 21.7924C5.98636 20.8839 5.55755 20.0239 5.01079 19.2399C3.88026 17.3679 2.71245 15.4325 3.687 13.7497C4.62567 12.1262 6.86189 12.1262 8.06972 12.1262C8.43 12.1262 8.80823 12.1345 9.16299 12.1428C9.51774 12.151 9.85318 12.158 10.19 12.158C10.79 12.2085 11.3941 12.1453 11.9707 11.9716C12.1613 11.05 12.2185 10.1057 12.1405 9.16782C12.0935 6.95904 12.0438 4.67433 13.7486 3.68866C14.1688 3.44881 14.6453 3.32538 15.129 3.33112C16.6206 3.52964 18.0359 4.10922 19.2384 5.01393C20.0266 5.56376 20.8931 5.9919 21.8087 6.28398C22.4138 5.59238 22.9202 4.82024 23.3133 3.98961C24.3845 2.02379 25.4971 0 27.4986 0C29.5002 0 30.6114 2.02379 31.6881 3.98133C32.0824 4.81665 32.5936 5.59153 33.2065 6.2826C34.1143 5.9862 34.9738 5.5583 35.7575 5.01255C36.9621 4.10526 38.3803 3.52378 39.8751 3.32421C40.3589 3.31848 40.8354 3.44191 41.2555 3.68176C42.9589 4.66743 42.912 6.95075 42.8637 9.15815C42.7856 10.097 42.8428 11.0421 43.0335 11.9647C43.61 12.1384 44.2141 12.2016 44.8142 12.1511C45.151 12.1511 45.5043 12.1441 45.8412 12.1359C46.178 12.1276 46.5741 12.1193 46.9344 12.1193C48.1381 12.1193 50.3785 12.1193 51.3171 13.7428C52.2931 15.4283 51.1211 17.3652 49.9892 19.2399L49.9768 19.2592C49.4346 20.0393 49.0117 20.8958 48.722 21.8007C49.4137 22.4071 50.1863 22.9144 51.0176 23.3082C52.975 24.3836 55 25.4962 55 27.4979C55 29.4996 52.9777 30.6109 51.0217 31.6849C50.1847 32.079 49.408 32.5903 48.7151 33.2035C49.0129 34.112 49.4422 34.972 49.9892 35.756C51.1211 37.6293 52.2931 39.5675 51.3171 41.2531C50.3785 42.8766 48.1423 42.8766 46.9344 42.8766C46.5741 42.8766 46.1959 42.8683 45.8412 42.86C45.4864 42.8517 45.151 42.8448 44.8142 42.8448C44.2142 42.7954 43.6102 42.8586 43.0335 43.0312C42.8429 43.9528 42.7857 44.897 42.8637 45.8349C42.9106 48.0437 42.9603 50.3284 41.2555 51.3141C40.8354 51.554 40.3589 51.6774 39.8751 51.6716C38.3789 51.4756 36.9586 50.8964 35.7519 49.9902C34.9654 49.4418 34.1008 49.0151 33.1872 48.7243C32.5821 49.4159 32.0757 50.188 31.6826 51.0187C30.6114 52.9762 29.4988 55 27.4986 55ZM37.0233 13.7386C36.7837 13.7376 36.5472 13.7916 36.3318 13.8964C36.1164 14.0013 35.9279 14.1541 35.7809 14.3433L16.722 38.702C16.595 38.8651 16.5015 39.0517 16.4467 39.251C16.3919 39.4503 16.3768 39.6584 16.4025 39.8635C16.4281 40.0687 16.4939 40.2667 16.5961 40.4464C16.6983 40.6261 16.8349 40.7839 16.998 40.9107C17.3276 41.1667 17.7454 41.2814 18.1595 41.2297C18.5736 41.1779 18.9502 40.9639 19.2067 40.6346L38.2601 16.2898C38.515 15.9597 38.629 15.5423 38.5773 15.1284C38.5256 14.7146 38.3123 14.3381 37.984 14.081C37.7109 13.862 37.3719 13.7414 37.0219 13.7386H37.0233ZM34.0444 29.8986C33.3358 29.8327 32.6213 29.9237 31.9519 30.1653C31.2825 30.4068 30.6745 30.7929 30.1712 31.2961C29.6679 31.7993 29.2816 32.4073 29.0399 33.0767C28.7982 33.7461 28.707 34.4606 28.7727 35.1693C28.707 35.878 28.7982 36.5925 29.0399 37.2619C29.2816 37.9313 29.6679 38.5392 30.1712 39.0425C30.6745 39.5457 31.2825 39.9318 31.9519 40.1733C32.6213 40.4149 33.3358 40.5059 34.0444 40.44C34.753 40.5059 35.4675 40.4149 36.1369 40.1733C36.8063 39.9318 37.4143 39.5457 37.9176 39.0425C38.4209 38.5392 38.8072 37.9313 39.0489 37.2619C39.2906 36.5925 39.3818 35.878 39.3161 35.1693C39.3818 34.4606 39.2906 33.7461 39.0489 33.0767C38.8072 32.4073 38.4209 31.7993 37.9176 31.2961C37.4143 30.7929 36.8063 30.4068 36.1369 30.1653C35.4675 29.9237 34.753 29.8327 34.0444 29.8986ZM20.939 14.5476C20.2304 14.4817 19.516 14.5727 18.8465 14.8143C18.1771 15.0558 17.5691 15.4419 17.0658 15.9451C16.5625 16.4483 16.1763 17.0563 15.9346 17.7257C15.6929 18.3951 15.6016 19.1096 15.6674 19.8183C15.6016 20.527 15.6929 21.2414 15.9346 21.9109C16.1763 22.5803 16.5625 23.1882 17.0658 23.6914C17.5691 24.1946 18.1771 24.5807 18.8465 24.8223C19.516 25.0638 20.2304 25.1549 20.939 25.089C21.6477 25.1549 22.3621 25.0638 23.0315 24.8223C23.701 24.5807 24.309 24.1946 24.8123 23.6914C25.3156 23.1882 25.7018 22.5803 25.9435 21.9109C26.1852 21.2414 26.2765 20.527 26.2107 19.8183C26.2765 19.1096 26.1852 18.3951 25.9435 17.7257C25.7018 17.0563 25.3156 16.4483 24.8123 15.9451C24.309 15.4419 23.701 15.0558 23.0315 14.8143C22.3621 14.5727 21.6477 14.4817 20.939 14.5476ZM34.0444 37.2897C32.4777 37.2897 31.9227 36.7375 31.9227 35.1679C31.9227 33.5983 32.4749 33.0461 34.0444 33.0461C35.6139 33.0461 36.166 33.5983 36.166 35.1679C36.166 36.7375 35.6139 37.2911 34.0444 37.2911V37.2897ZM20.939 21.9387C19.3709 21.9387 18.816 21.3865 18.816 19.8183C18.816 18.25 19.3682 17.6965 20.939 17.6965C22.5099 17.6965 23.0607 18.2487 23.0607 19.8183C23.0607 21.3879 22.5003 21.9387 20.939 21.9387Z" fill="#0B2739"/>
                    </svg>