<svg width="16" height="16" viewBox="0 0 16 16" fill="none" xmlns="http://www.w3.org/2000/svg">
<path d="M14.6533 8.00294C14.6533 1.80294 9.33331 1.35628 8.26665 1.33628C8.07998 1.33628 7.85998 1.32961 7.65998 1.33628C6.59998 1.34961 1.33331 1.70294 1.33331 7.97628C1.33331 14.2496 6.63998 14.6363 7.69998 14.6496C7.89331 14.6496 8.08665 14.6496 8.28665 14.6496C9.35331 14.6296 14.6533 14.2163 14.6533 8.00961V8.00294ZM13.84 8.00294C13.84 13.3163 9.57998 13.8029 8.27331 13.8296C8.08665 13.8296 7.89998 13.8296 7.71331 13.8296C6.40665 13.8096 2.14665 13.3363 2.14665 7.96294C2.14665 2.58961 6.37331 2.14961 7.66665 2.13628C7.85998 2.13628 8.06665 2.13628 8.24665 2.13628C9.55998 2.16961 13.84 2.68294 13.84 7.98961V8.00294ZM7.69998 11.0629C8.05998 11.0629 8.29331 11.2963 8.29331 11.6363C8.29331 12.0096 8.06665 12.2363 7.71998 12.2363C7.35331 12.2363 7.12665 12.0096 7.12665 11.6763V11.6296C7.12665 11.2896 7.35998 11.0563 7.69998 11.0563V11.0629ZM10.1866 5.76961C10.1866 5.08961 9.96665 4.60961 9.49331 4.25628C9.12665 3.97628 8.61998 3.83628 7.97998 3.83628C7.37331 3.83628 6.74665 3.96294 6.49331 4.08294C6.37998 4.13628 6.31998 4.25628 6.34665 4.37628L6.39331 4.60961V4.62961C6.43331 4.77628 6.57998 4.86294 6.71998 4.82294C7.08665 4.72294 7.46665 4.67628 7.84665 4.67628C8.54665 4.67628 8.79998 4.80961 8.94665 4.92961C9.19998 5.12961 9.30665 5.37628 9.30665 5.75628C9.30665 6.28961 9.12665 6.60294 8.17331 7.72961L8.06665 7.86294C7.48665 8.55628 7.23331 8.98961 7.23331 9.72294C7.23331 9.86961 7.24665 10.0096 7.27331 10.1496C7.29998 10.2763 7.41331 10.3696 7.53998 10.3696H7.83998C7.98665 10.3696 8.11331 10.2496 8.11331 10.0963C8.11331 9.11628 8.14665 9.07628 9.05331 8.02961C9.84665 7.09628 10.1866 6.60294 10.1866 5.76961Z" fill="#019BEF"/>
</svg>
