<svg width="57" height="67" viewBox="0 0 57 67" fill="none" xmlns="http://www.w3.org/2000/svg">
<path fill-rule="evenodd" clip-rule="evenodd" d="M56.8171 11.2257C56.8171 11.1848 56.817 11.1541 56.817 11.1337L56.7894 10.8816C56.605 9.76117 55.5538 8.99553 54.4474 9.18227C49.0719 10.0413 46.2597 8.13652 42.7099 5.72756L42.7065 5.72523C39.2128 3.35419 35.2669 0.676204 28.4737 0.66687H28.4552C21.6976 0.66687 17.7483 3.32616 14.2681 5.66965L14.2098 5.70889L14.1814 5.72818C10.645 8.12806 7.84278 10.0297 2.54605 9.18227C1.96516 9.03288 1.33818 9.17294 0.867943 9.54642C0.397705 9.92924 0.111874 10.5081 0.111874 11.1244C0.102653 12.0207 0.0473313 33.1785 1.61479 42.3289C3.66171 54.3643 26.648 65.6155 27.6254 66.0917C28.1602 66.3438 28.7779 66.3438 29.3035 66.0917C30.2809 65.6248 53.2949 54.3737 55.3418 42.3382C56.8376 33.3955 56.8187 12.9842 56.8171 11.2257ZM16.9667 32.9918L23.5684 39.7518C23.5684 39.7518 39.9622 22.9451 39.9715 22.9544L39.9991 22.9264C40.7644 22.1701 41.9907 22.1795 42.7468 22.9544C43.5121 23.7388 43.5121 25.0086 42.7468 25.7929L24.9515 44.0189L24.9423 44.0282C24.1862 44.7938 22.9415 44.7938 22.1854 44.0189L14.1914 35.8303C13.4261 35.0459 13.4261 33.7761 14.1914 32.9918L14.219 32.9638C14.9843 32.2075 16.2106 32.2168 16.9667 32.9918Z" fill="#313235"/>
</svg>
