<svg width="24" height="24" viewBox="0 0 24 24" fill="none" xmlns="http://www.w3.org/2000/svg">
<path fill-rule="evenodd" clip-rule="evenodd" d="M5.07806 2.49951L4.96519 2.50803C4.70634 2.54736 4.48328 2.72019 4.38293 2.96793L2.12599 8.53853C0.917336 10.0012 1.53442 11.6122 3.21971 12.3835L3.32296 12.4277V20.2391L3.32886 20.3851C3.40308 21.2998 4.16861 22.0191 5.10196 22.0191H9.34606V22.0505L14.1713 22.0191H19.072L19.218 22.0132C20.1329 21.939 20.852 21.1732 20.852 20.2391V12.4332L20.93 12.3988C22.575 11.6347 23.2233 10.0947 22.0865 8.60951L22.0471 8.56081L19.7718 2.96685C19.6568 2.68429 19.3821 2.49951 19.0771 2.49951H5.07806ZM19.352 12.827C18.3985 12.9207 17.4548 12.7271 16.7524 12.2266L16.7021 12.1878L16.6094 12.2434C15.218 13.0391 13.8255 13.0034 12.5784 12.4228L12.3925 12.3316C12.3308 12.2999 12.2718 12.268 12.2156 12.2362L12.1151 12.1768L11.9926 12.2554C10.6446 13.0517 8.60671 12.9876 7.43596 12.2408L7.38106 12.2038L7.24632 12.2855C6.52642 12.6898 5.66986 12.8544 4.82296 12.7919V20.2391C4.82296 20.3717 4.91492 20.4827 5.03807 20.5117L5.10196 20.5191H9.34606V16.2726C9.34606 15.3154 10.1214 14.5106 11.0811 14.5106H13.1071C14.0653 14.5106 14.8421 15.2874 14.8421 16.2456V20.5191H19.072C19.2046 20.5191 19.3156 20.4271 19.3446 20.3034L19.352 20.2391V12.827ZM5.58306 3.99881H18.5721L20.7004 9.22917C20.7303 9.3028 20.7718 9.37121 20.8232 9.43182C21.4104 10.1236 21.1718 10.6777 20.1862 11.0876C19.176 11.5078 17.9989 11.4051 17.461 10.8678L17.3728 10.7684C17.1204 10.4457 16.6557 10.3853 16.3291 10.6327C15.1681 11.5124 14.0816 11.5141 13.0791 10.998C12.831 10.8703 12.6588 10.747 12.5834 10.68C12.2826 10.4126 11.8243 10.4303 11.545 10.7201C10.7492 11.5459 8.678 11.4621 8.10832 10.8808L8.04275 10.8022C7.78102 10.426 7.24598 10.3704 6.91251 10.6849C6.17984 11.3758 4.86893 11.4886 3.84391 11.0195C3.00202 10.6342 2.78288 10.1375 3.24697 9.53831L3.38928 9.36433C3.42217 9.31761 3.44968 9.26722 3.4712 9.21409L5.58306 3.99881ZM10.8461 16.2726V20.5191H13.3421V16.2456C13.3421 16.1375 13.269 16.0464 13.1695 16.019L13.1071 16.0106H11.0811C10.9626 16.0106 10.8461 16.1316 10.8461 16.2726Z" fill="#313235"/>
</svg>
