<svg width="66" height="48" viewBox="0 0 66 48" fill="none" xmlns="http://www.w3.org/2000/svg">
<path fill-rule="evenodd" clip-rule="evenodd" d="M65.4469 13.9313C65.4613 13.9825 65.4761 14.0345 65.4761 14.0926V26.6416C65.4761 26.6996 65.4613 26.7517 65.4469 26.8029C65.4357 26.8423 65.4248 26.8811 65.4208 26.9217V42.3932C65.4208 45.0729 63.2263 47.2578 60.534 47.2578H5.5992C2.89764 47.2578 0.703202 45.0729 0.703202 42.3932V26.8096C0.699408 26.7866 0.69249 26.7651 0.685662 26.7439C0.675899 26.7136 0.666321 26.6839 0.666321 26.6509V14.0926C0.666321 14.0596 0.675899 14.0299 0.685662 13.9996C0.69249 13.9784 0.699408 13.9569 0.703202 13.9339V5.64256C0.703202 2.95349 2.89764 0.777954 5.5992 0.777954H60.534C63.2263 0.777954 65.4208 2.95349 65.4208 5.64256V13.8125C65.4248 13.8531 65.4357 13.8919 65.4469 13.9313ZM5.5992 4.88626H60.534C60.9581 4.88626 61.2993 5.22239 61.2993 5.64256V12.0384H4.83391V5.64256C4.83391 5.22239 5.17507 4.88626 5.5992 4.88626ZM60.534 43.1495H5.5992C5.17507 43.1495 4.83391 42.8134 4.83391 42.3932V28.7051H61.2993V42.3932C61.29 42.8134 60.9489 43.1495 60.534 43.1495Z" fill="#313235"/>
</svg>
