<svg width="26" height="40" viewBox="0 0 26 40" fill="none" xmlns="http://www.w3.org/2000/svg">
<path fill-rule="evenodd" clip-rule="evenodd" d="M24.374 18.0459C24.7941 18.1523 25.1247 18.4773 25.2423 18.903C25.36 19.3288 25.2423 19.7882 24.9398 20.1019L6.36839 39.34C6.1331 39.5753 5.83058 39.6985 5.52245 39.6985C5.29837 39.6985 5.07428 39.6313 4.8726 39.4968C4.39641 39.1831 4.20593 38.5669 4.41321 38.0234L9.81377 23.9226L1.58969 21.889C1.17512 21.7882 0.84459 21.4632 0.726943 21.0431C0.609296 20.6229 0.715738 20.1635 1.01266 19.8498L18.8446 0.706976C19.2423 0.281206 19.8698 0.208377 20.3516 0.527705C20.8334 0.847032 21.0238 1.47448 20.8109 2.0179L15.3712 15.8274L24.374 18.0459ZM12.5364 23.5081L8.74934 33.396L21.7577 19.917L13.4664 17.8722C13.1303 17.7882 12.8446 17.5585 12.6877 17.2392C12.5308 16.9254 12.514 16.5501 12.6429 16.2196L16.2731 7.00949L4.17232 20.0011L11.7073 21.8666C12.0435 21.9506 12.3292 22.1803 12.486 22.4941C12.6429 22.8078 12.6597 23.1775 12.5364 23.5081Z" fill="#019BEF"/>
</svg>
