<svg width="55" height="55" viewBox="0 0 55 55" fill="none" xmlns="http://www.w3.org/2000/svg">
                    <path d="M43.4244 44.9802L11.5745 44.9632C10.4034 45.045 9.22894 44.8696 8.12447 44.4479C7.02 44.0263 6.00919 43.3675 5.15509 42.5126C3.64561 40.6864 2.87679 38.3008 3.01611 35.8753V26.6398H51.984V35.8975C52.1229 38.3229 51.3541 40.7084 49.845 42.5348C48.9902 43.3887 47.979 44.0464 46.8743 44.4672C45.7697 44.8879 44.5953 45.0625 43.4244 44.9802ZM10.6003 32.1576C10.1325 32.1579 9.68395 32.3554 9.35304 32.7065C9.02214 33.0577 8.83593 33.534 8.83528 34.0308V36.774C8.83593 37.2709 9.02214 37.7471 9.35304 38.0983C9.68395 38.4495 10.1325 38.6469 10.6003 38.6473H13.1834C13.6508 38.6469 14.0991 38.4496 14.4298 38.0987C14.7605 37.7477 14.9465 37.2718 14.9472 36.7753V34.0321C14.9469 33.5354 14.7609 33.0592 14.4302 32.7079C14.0995 32.3567 13.6511 32.1592 13.1834 32.1589L10.6003 32.1576ZM51.9569 19.1756H3.04194C3.04302 18.0467 3.25664 16.9294 3.67023 15.8893C4.08382 14.8493 4.68904 13.9077 5.45029 13.1197C7.1714 11.6274 9.3578 10.8767 11.5757 11.0165L43.4256 11.0401C45.6401 10.9013 47.8231 11.6494 49.5436 13.1367C50.3046 13.9215 50.9101 14.8598 51.3247 15.8967C51.7394 16.9335 51.9547 18.0479 51.9582 19.1743L51.9569 19.1756Z" fill="#0B2739"/>
                </svg>