<svg width="55" height="55" viewBox="0 0 55 55" fill="none" xmlns="http://www.w3.org/2000/svg">
                    <path d="M37.2399 51.9842H18.2726C16.0691 52.1165 13.9015 51.3911 12.2418 49.9661C11.4657 49.159 10.8677 48.204 10.4851 47.1607C10.1024 46.1174 9.94339 45.0082 10.0178 43.9021L10.0265 30.0861C10.0265 29.7247 10.0265 29.5753 10.0265 29.5174C10.0265 29.4869 10.0265 29.4564 10.0265 29.4259C9.95167 28.3197 10.1104 27.2102 10.4928 26.1667C10.8753 25.1232 11.4731 24.168 12.2492 23.3607C13.2612 22.4368 14.5217 21.8152 15.8824 21.569V14.9111C15.9544 11.9549 17.2201 9.1471 19.4023 7.10252C21.5845 5.05794 24.5055 3.94319 27.5255 4.00236H27.987C31.0081 3.94158 33.9305 5.05561 36.1141 7.10036C38.2976 9.14511 39.5642 11.9538 39.6362 14.9111V21.5715C40.9973 21.8174 42.2583 22.439 43.2706 23.3631C44.0462 24.17 44.6438 25.1246 45.0262 26.1675C45.4086 27.2103 45.5677 28.319 45.4934 29.4247C45.4934 29.4552 45.4934 29.4857 45.4934 29.5162C45.4934 29.5741 45.4934 29.7222 45.4934 30.0849L45.502 43.8997C45.5768 45.0059 45.418 46.1153 45.0356 47.1588C44.6532 48.2023 44.0553 49.1575 43.2792 49.9649C41.6176 51.3925 39.4464 52.1184 37.2399 51.9842ZM27.5255 6.53254C25.1901 6.47124 22.925 7.31865 21.2267 8.88912C19.5283 10.4596 18.5351 12.625 18.4646 14.9111V21.3449H37.0491V14.9111C36.9786 12.6248 35.9852 10.4592 34.2866 8.88868C32.5879 7.31818 30.3226 6.47092 27.987 6.53254H27.5255Z" fill="#0B2739"/>
                </svg>