<svg width="65" height="66" viewBox="0 0 65 66" fill="none" xmlns="http://www.w3.org/2000/svg">
<path fill-rule="evenodd" clip-rule="evenodd" d="M62.7806 29.6119C61.96 28.9677 60.9458 28.3981 59.9684 27.8566L59.9528 27.8478C59.129 27.3885 57.652 26.5651 57.313 26.1012C57.3587 25.5084 58.2664 23.9876 58.776 23.1338L58.776 23.1338L58.7882 23.1133L58.7909 23.109C60.127 20.8694 61.5075 18.5555 60.3465 16.5307C59.1755 14.4766 56.4832 14.5326 53.8738 14.5886L53.8399 14.5893C52.874 14.6081 51.1477 14.6418 50.6282 14.4019C50.3918 13.8768 50.4244 12.1434 50.4431 11.1555L50.4438 11.1152C50.4992 8.48216 50.5545 5.75574 48.526 4.5606C46.5437 3.40823 44.2692 4.79029 42.066 6.12899L42.0349 6.1479C41.1958 6.66144 39.6652 7.59514 39.0844 7.64183C38.6263 7.29855 37.8131 5.80288 37.3596 4.96864L37.3509 4.95276C36.8162 3.96303 36.2537 2.93595 35.6175 2.10495C35.2579 1.62876 34.1515 0.200195 32.3904 0.200195C31.957 0.200195 30.6293 0.200195 29.1633 2.10495C28.5271 2.93595 27.9646 3.96303 27.4299 4.95276L27.4213 4.96857C26.9677 5.8028 26.1545 7.29854 25.6964 7.64183C25.111 7.59552 23.6092 6.67629 22.7661 6.16028L22.7459 6.1479L22.7416 6.14527C20.5301 4.79222 18.2451 3.39423 16.2456 4.56994C14.2171 5.75574 14.2724 8.48216 14.3278 11.1245L14.3284 11.1589C14.347 12.1371 14.3803 13.8852 14.1433 14.4112C13.6249 14.6507 11.9131 14.6176 10.9375 14.5987H10.9375L10.8978 14.5979C8.29765 14.5419 5.60531 14.4859 4.42511 16.54C3.26409 18.5649 4.6446 20.8788 5.98075 23.1183L5.98334 23.1227C6.49046 23.9723 7.4125 25.5223 7.4586 26.1105C7.1196 26.5744 5.6426 27.3979 4.8188 27.8572L4.80314 27.8659C3.82578 28.4074 2.81155 28.977 1.99094 29.6213C1.5207 29.9854 0.109985 31.1058 0.109985 32.8892C0.109985 33.3281 0.109985 34.6726 1.99094 36.1572C2.81155 36.8014 3.82578 37.371 4.80314 37.9126L4.81881 37.9213C5.64262 38.3806 7.11961 39.204 7.4586 39.6679C7.41286 40.2607 6.5051 41.7816 5.99554 42.6353L5.98334 42.6558L5.98074 42.6601C4.6446 44.8997 3.2641 47.2136 4.42511 49.2384C5.59609 51.2926 8.28843 51.2365 10.8978 51.1805L10.9316 51.1799C11.8976 51.161 13.6239 51.1273 14.1433 51.3673C14.3798 51.8923 14.3471 53.6257 14.3285 54.6137L14.3278 54.6539C14.2724 57.287 14.2171 60.0134 16.2456 61.2085C18.2451 62.3842 20.5301 60.9862 22.7416 59.6332L22.7459 59.6306C23.585 59.117 25.1156 58.1833 25.6964 58.1366C26.1545 58.4799 26.9677 59.9757 27.4213 60.8099L27.4299 60.8257C27.9646 61.8154 28.5271 62.8425 29.1633 63.6735L29.164 63.6744C29.5243 64.1422 30.6304 65.5783 32.3904 65.5783C32.8238 65.5783 34.1515 65.5783 35.6175 63.6735C36.2537 62.8425 36.8162 61.8154 37.3509 60.8257L37.3596 60.8098L37.3596 60.8098C37.8132 59.9755 38.6263 58.4799 39.0844 58.1366C39.6698 58.1829 41.1717 59.1022 42.0147 59.6182L42.0349 59.6306L42.0392 59.6332C44.2507 60.9862 46.5357 62.3842 48.5352 61.2085C50.5472 60.0324 50.5001 57.3406 50.4542 54.7185L50.4531 54.6539L50.4524 54.6195C50.4338 53.6413 50.4005 51.8932 50.6375 51.3673C51.1559 51.1278 52.8677 51.1609 53.8433 51.1798L53.883 51.1805C56.4832 51.2365 59.1755 51.2926 60.3557 49.2384C61.5167 47.2136 60.1362 44.8997 58.8001 42.6602L58.7975 42.6558C58.2903 41.8061 57.3683 40.2562 57.3222 39.6679C57.6612 39.204 59.1382 38.3806 59.962 37.9213L59.9777 37.9126C60.955 37.371 61.9693 36.8014 62.7899 36.1572L62.7907 36.1565C63.2527 35.7917 64.6708 34.6715 64.6708 32.8892C64.6708 32.4317 64.6708 31.0965 62.7806 29.6119ZM24.7099 17.5111C28.5732 17.5111 30.8875 19.8454 30.8875 23.7669C30.8875 27.6885 28.5824 30.0227 24.7099 30.0227C20.8373 30.0227 18.5322 27.6885 18.5322 23.7669C18.5322 19.8454 20.8465 17.5111 24.7099 17.5111ZM20.0905 48.7622C20.8834 49.4065 22.0452 49.2664 22.6814 48.4634L45.0038 19.5839C45.6308 18.7716 45.4925 17.5951 44.6903 16.9602C43.8882 16.3253 42.7264 16.4653 42.0994 17.2777L19.777 46.1665C19.1684 46.9695 19.3067 48.1273 20.0905 48.7622ZM40.0617 48.2207C36.1984 48.2207 33.8841 45.8864 33.8841 41.9648C33.8841 38.0433 36.1892 35.709 40.0617 35.709C43.9343 35.709 46.2394 38.0433 46.2394 41.9648C46.2394 45.8864 43.925 48.2207 40.0617 48.2207ZM24.7099 26.2786C26.5447 26.2786 27.1993 25.625 27.1993 23.7576C27.1993 21.8902 26.5447 21.2366 24.7099 21.2366C22.875 21.2366 22.2204 21.8995 22.2204 23.7576C22.2204 25.6157 22.875 26.2786 24.7099 26.2786ZM40.0617 39.4532C38.2269 39.4532 37.5722 40.1068 37.5722 41.9742C37.5722 43.8416 38.2269 44.4952 40.0617 44.4952C41.8966 44.4952 42.5512 43.8416 42.5512 41.9742C42.5512 40.1068 41.8966 39.4532 40.0617 39.4532Z" fill="#313235"/>
</svg>
