<svg width="20" height="18" viewBox="0 0 20 18" fill="none" xmlns="http://www.w3.org/2000/svg">
<path fill-rule="evenodd" clip-rule="evenodd" d="M14.3803 10.4726C14.4895 10.5231 14.6044 10.5483 14.7192 10.5483C14.8957 10.5483 15.0722 10.4895 15.2122 10.3746L15.2122 10.3746C15.2262 10.3634 15.2402 10.3522 15.2542 10.3382L19.4643 6.18974C19.4979 6.15893 19.5288 6.12811 19.5568 6.0917C19.8061 5.77517 19.7612 5.32139 19.4643 5.05809L15.2542 0.878823C15.243 0.864824 15.229 0.853623 15.215 0.842423L15.215 0.842419L15.215 0.842409C14.9825 0.651933 14.6548 0.612717 14.3831 0.741568C14.1142 0.87042 13.9461 1.13092 13.9461 1.42504L13.9321 3.24857L11.0274 3.25137C10.3635 3.25137 9.82569 3.78918 9.82569 4.45305V6.77237C9.82569 7.43624 10.3635 7.97405 11.0274 7.97405L13.9293 7.96845L13.9433 9.79197C13.9461 10.0833 14.1114 10.3438 14.3803 10.4726ZM15.0498 7.5903C15.0358 7.17573 14.694 6.8452 14.2823 6.8452C14.2767 6.8452 14.2739 6.8452 14.2711 6.8424L11.0302 6.848C10.9853 6.848 10.9489 6.81159 10.9489 6.76677V4.44744C10.9489 4.40263 10.9853 4.36621 11.0302 4.36621L14.2711 4.36341H14.2823C14.694 4.36341 15.0358 4.03288 15.0498 3.61831V3.60711L15.061 2.25697L18.4447 5.61551L15.061 8.95444L15.0498 7.6015V7.5903ZM4.99656 17.0945C4.81729 17.0945 4.64362 17.0357 4.50076 16.918C4.48676 16.9068 4.47275 16.8956 4.46155 16.8816L0.254273 12.7079C-0.0426452 12.4446 -0.0874631 11.9908 0.161836 11.6771C0.189847 11.6407 0.22066 11.6071 0.254273 11.5791L4.46435 7.42503C4.47836 7.41103 4.49236 7.39982 4.50637 7.38862C4.73886 7.20094 5.06659 7.16173 5.3383 7.29058C5.60721 7.41943 5.77247 7.67993 5.77527 7.97125L5.78928 9.79197L8.69123 9.78637C9.3551 9.78637 9.89291 10.3242 9.89291 10.9881V13.3074C9.89291 13.9712 9.3551 14.5091 8.69123 14.5091L5.78368 14.5147L5.76967 16.3382C5.76967 16.6323 5.6016 16.8928 5.3327 17.0217C5.22625 17.0693 5.11141 17.0945 4.99656 17.0945ZM4.65483 15.4978L1.27668 12.1449L4.65483 8.80878L4.66603 10.1589V10.1701C4.67724 10.5903 5.02737 10.9208 5.44474 10.9152L8.68283 10.9096C8.72765 10.9096 8.76406 10.946 8.76406 10.9909V13.3102C8.76406 13.355 8.72765 13.3914 8.68283 13.3914L5.44474 13.3942C5.02737 13.3886 4.68004 13.7191 4.66603 14.1393V14.1505L4.65483 15.4978Z" fill="#313235"/>
</svg>
