<svg width="24" height="24" viewBox="0 0 24 24" fill="none" xmlns="http://www.w3.org/2000/svg">
<path fill-rule="evenodd" clip-rule="evenodd" d="M18.1485 7.74496C18.5182 8.27437 20.7031 11.3024 20.9776 11.6693C21.2269 11.9943 21.6863 12.6133 21.6835 13.3388V16.308C21.6835 16.843 21.4594 17.3808 21.0728 17.7898C20.6807 18.2015 20.1569 18.434 19.6499 18.434H18.7815C18.5882 19.9747 17.5266 20.9018 15.9272 20.9018C14.3193 20.9018 13.2577 19.9747 13.0644 18.434H9.13445C8.94118 19.9747 7.87955 20.9018 6.28011 20.9018C4.67227 20.9018 3.60784 19.9747 3.40896 18.434C2.62745 18.42 2 17.759 2 16.9466V5.16793C2 4.3472 2.64146 3.67773 3.43137 3.67773L14.0532 3.68614C14.8403 3.68614 15.4846 4.3472 15.4846 5.16793V6.78418L16.3053 6.77577H16.3137C17.0224 6.77577 17.7395 7.15953 18.1485 7.74496ZM9.11765 17.1819H13.0812C13.2353 16.336 13.6443 15.6917 14.2801 15.2968V5.16793C14.2801 5.04188 14.1737 4.94104 14.0532 4.94104L3.43137 4.93264C3.30532 4.93544 3.20448 5.04188 3.20728 5.16793V16.9494C3.21008 17.0755 3.30812 17.1763 3.43417 17.1819C3.69188 15.7366 4.72829 14.8738 6.28011 14.8738C7.82353 14.8738 8.85994 15.7366 9.11765 17.1819ZM20.4818 16.3108C20.4818 16.5125 20.3838 16.7394 20.2241 16.9046C20.056 17.0811 19.8375 17.1791 19.6527 17.1791H18.7675C18.5098 15.7338 17.4734 14.871 15.93 14.871C15.7759 14.871 15.6331 14.8794 15.4874 14.8962V8.03628L16.3137 8.02787C16.6275 8.02787 16.9916 8.22115 17.1681 8.47045C17.563 9.03068 19.7507 12.0503 20.0308 12.4284C20.1989 12.6553 20.4818 13.0391 20.4818 13.35V16.3108ZM15.9272 19.6497C14.8011 19.6497 14.2297 19.0559 14.2297 17.8934C14.2297 16.7198 14.8011 16.1259 15.9272 16.1259C17.0448 16.1259 17.6162 16.7198 17.6162 17.8906C17.6162 19.0559 17.0448 19.6497 15.9272 19.6497ZM6.27731 19.6497C5.15126 19.6497 4.57983 19.0559 4.57983 17.8934C4.57983 16.7226 5.15126 16.1287 6.27731 16.1287C7.39496 16.1287 7.96639 16.7226 7.96639 17.8934C7.96639 19.0559 7.39496 19.6497 6.27731 19.6497Z" fill="#313235"/>
</svg>
