<svg width="17" height="16" viewBox="0 0 17 16" fill="none" xmlns="http://www.w3.org/2000/svg">
<path fill-rule="evenodd" clip-rule="evenodd" d="M14.6327 7.32229C14.4665 7.19343 14.2611 7.07952 14.0632 6.97121L14.06 6.96947C13.8932 6.87761 13.594 6.71292 13.5254 6.62014C13.5346 6.50158 13.7185 6.19741 13.8217 6.02667L13.8217 6.02666L13.8241 6.02257L13.8247 6.0217C14.0953 5.57379 14.3749 5.11101 14.1397 4.70604C13.9026 4.29521 13.3573 4.30642 12.8288 4.31762L12.8219 4.31775C12.6263 4.32152 12.2767 4.32826 12.1715 4.28027C12.1236 4.17527 12.1302 3.82856 12.134 3.63097L12.1341 3.62294C12.1453 3.09633 12.1565 2.55105 11.7457 2.31202C11.3442 2.08155 10.8836 2.35796 10.4374 2.6257L10.4311 2.62948C10.2611 2.73219 9.95113 2.91893 9.83349 2.92827C9.74071 2.85961 9.57604 2.5605 9.48417 2.39365L9.48417 2.39364L9.48416 2.39363L9.48241 2.39045C9.3741 2.19251 9.26019 1.98709 9.13134 1.82089C9.05851 1.72566 8.83442 1.43994 8.47775 1.43994C8.38998 1.43994 8.12107 1.43994 7.82415 1.82089C7.6953 1.98709 7.58139 2.19251 7.47308 2.39045L7.47134 2.39362C7.37948 2.56047 7.21479 2.85961 7.12201 2.92827C7.00345 2.91901 6.69927 2.73516 6.52853 2.63196L6.52444 2.62948L6.52356 2.62896C6.07566 2.35835 5.61288 2.07875 5.20791 2.31389C4.79708 2.55105 4.80828 3.09634 4.81949 3.62481L4.81962 3.63168V3.63168C4.82339 3.82732 4.83013 4.17694 4.78214 4.28214C4.67714 4.33004 4.33045 4.32342 4.13286 4.31964L4.12481 4.31949C3.5982 4.30828 3.05292 4.29708 2.81389 4.70791C2.57875 5.11288 2.85835 5.57566 3.12896 6.02356L3.12948 6.02444C3.23219 6.19437 3.41893 6.50436 3.42827 6.62201C3.35961 6.71478 3.0605 6.87946 2.89365 6.97132L2.89363 6.97133L2.89362 6.97134L2.89045 6.97308C2.69251 7.08139 2.48709 7.1953 2.32089 7.32415C2.22566 7.39698 1.93994 7.62107 1.93994 7.97775C1.93994 8.06552 1.93994 8.33442 2.32089 8.63134C2.48709 8.76019 2.69251 8.8741 2.89045 8.98241L2.89363 8.98416L2.89364 8.98417L2.89365 8.98418C3.06051 9.07604 3.35961 9.24071 3.42827 9.33349C3.41901 9.45205 3.23516 9.75622 3.13196 9.92697L3.12948 9.93106L3.12896 9.93193C2.85834 10.3798 2.57875 10.8426 2.81389 11.2476C3.05105 11.6584 3.59634 11.6472 4.12481 11.636L4.13169 11.6359C4.32733 11.6321 4.67694 11.6254 4.78214 11.6734C4.83004 11.7784 4.82342 12.125 4.81964 12.3226L4.81949 12.3307C4.80828 12.8573 4.79708 13.4026 5.20791 13.6416C5.61288 13.8767 6.07566 13.5971 6.52357 13.3265L6.52444 13.326C6.69437 13.2233 7.00436 13.0366 7.12201 13.0272C7.21479 13.0959 7.37948 13.395 7.47134 13.5619L7.47308 13.565C7.58139 13.763 7.6953 13.9684 7.82415 14.1346L7.82429 14.1348C7.89726 14.2283 8.12129 14.5156 8.47775 14.5156C8.56552 14.5156 8.83442 14.5156 9.13134 14.1346C9.26019 13.9684 9.3741 13.763 9.48241 13.565L9.48416 13.5619L9.48416 13.5619C9.57602 13.395 9.74071 13.0959 9.83349 13.0272C9.95205 13.0365 10.2562 13.2203 10.427 13.3235L10.4311 13.326L10.4319 13.3265C10.8798 13.5971 11.3426 13.8767 11.7476 13.6416C12.1551 13.4064 12.1455 12.868 12.1362 12.3436L12.136 12.3307L12.1359 12.3238C12.1321 12.1282 12.1254 11.7786 12.1734 11.6734C12.2784 11.6255 12.625 11.6321 12.8226 11.6359H12.8226L12.8307 11.636C13.3573 11.6472 13.9026 11.6584 14.1416 11.2476C14.3767 10.8426 14.0971 10.3798 13.8265 9.93193L13.826 9.93106C13.7233 9.76112 13.5366 9.45113 13.5272 9.33349C13.5959 9.24071 13.895 9.07602 14.0619 8.98416L14.0619 8.98416L14.065 8.98241C14.263 8.8741 14.4684 8.76019 14.6346 8.63134L14.6348 8.63121C14.7283 8.55823 15.0156 8.3342 15.0156 7.97775C15.0156 7.88624 15.0156 7.6192 14.6327 7.32229ZM6.92219 4.90212C7.70464 4.90212 8.17336 5.36897 8.17336 6.15329C8.17336 6.9376 7.70651 7.40445 6.92219 7.40445C6.13788 7.40445 5.67103 6.9376 5.67103 6.15329C5.67103 5.36897 6.13975 4.90212 6.92219 4.90212ZM5.98662 11.1523C6.14722 11.2812 6.38251 11.2532 6.51136 11.0926L11.0324 5.31669C11.1593 5.15422 11.1313 4.91893 10.9689 4.79194C10.8064 4.66496 10.5711 4.69297 10.4441 4.85544L5.92313 10.6332C5.79988 10.7938 5.82789 11.0254 5.98662 11.1523ZM10.0314 11.044C9.24899 11.044 8.78027 10.5772 8.78027 9.79287C8.78027 9.00856 9.24712 8.54171 10.0314 8.54171C10.8157 8.54171 11.2826 9.00856 11.2826 9.79287C11.2826 10.5772 10.8139 11.044 10.0314 11.044ZM6.92219 6.65562C7.29381 6.65562 7.42639 6.5249 7.42639 6.15142C7.42639 5.77794 7.29381 5.64722 6.92219 5.64722C6.55058 5.64722 6.41799 5.7798 6.41799 6.15142C6.41799 6.52303 6.55058 6.65562 6.92219 6.65562ZM10.0314 9.29054C9.65982 9.29054 9.52723 9.42126 9.52723 9.79474C9.52723 10.1682 9.65982 10.2989 10.0314 10.2989C10.403 10.2989 10.5356 10.1682 10.5356 9.79474C10.5356 9.42126 10.403 9.29054 10.0314 9.29054Z" fill="white"/>
</svg>
